<svg width="365" height="149" viewBox="0 0 365 149" fill="none" xmlns="http://www.w3.org/2000/svg">
<path opacity="0.2" d="M59.7189 61.9881C30.1852 61.1183 2.10059 101.967 -5.5 119V150H386.5L373 15.5C343 23 311 8 301.852 7.62648C281.222 7.62648 250.458 50.3903 236.704 72.8595C225.412 92.8643 211.007 97.1406 205.216 96.7782C178.288 97.648 157.803 52.9274 150.926 30.4583C144.846 5.23449 138 0.0162312 134.639 0.016262C129 1.86265e-08 120.524 7.40933 111.837 32.6327C103.151 57.8562 89.3974 64.8869 83.6065 65.2493C75.5067 65.7562 65.8718 61.9879 59.7189 61.9881Z" fill="url(#paint0_linear_43_7656)"/>
<defs>
<linearGradient id="paint0_linear_43_7656" x1="190.5" y1="0.0162354" x2="190" y2="150" gradientUnits="userSpaceOnUse">
<stop stop-color="#109CF1"/>
<stop offset="1" stop-color="#109CF1" stop-opacity="0"/>
</linearGradient>
</defs>
</svg>
