<svg width="90" height="16" viewBox="0 0 90 16" fill="none" xmlns="http://www.w3.org/2000/svg">
<path d="M10.7243 0.574999L6.80926 11H4.82926L0.899258 0.574999H2.72926L5.81926 9.245L8.92426 0.574999H10.7243ZM19.8793 6.665C19.8793 6.975 19.8593 7.255 19.8193 7.505H13.5043C13.5543 8.165 13.7993 8.695 14.2393 9.095C14.6793 9.495 15.2193 9.695 15.8593 9.695C16.7793 9.695 17.4293 9.31 17.8093 8.54H19.6543C19.4043 9.3 18.9493 9.925 18.2893 10.415C17.6393 10.895 16.8293 11.135 15.8593 11.135C15.0693 11.135 14.3593 10.96 13.7293 10.61C13.1093 10.25 12.6193 9.75 12.2593 9.11C11.9093 8.46 11.7343 7.71 11.7343 6.86C11.7343 6.01 11.9043 5.265 12.2443 4.625C12.5943 3.975 13.0793 3.475 13.6993 3.125C14.3293 2.775 15.0493 2.6 15.8593 2.6C16.6393 2.6 17.3343 2.77 17.9443 3.11C18.5543 3.45 19.0293 3.93 19.3693 4.55C19.7093 5.16 19.8793 5.865 19.8793 6.665ZM18.0943 6.125C18.0843 5.495 17.8593 4.99 17.4193 4.61C16.9793 4.23 16.4343 4.04 15.7843 4.04C15.1943 4.04 14.6893 4.23 14.2693 4.61C13.8493 4.98 13.5993 5.485 13.5193 6.125H18.0943ZM25.8821 2.6C26.5321 2.6 27.1121 2.735 27.6221 3.005C28.1421 3.275 28.5471 3.675 28.8371 4.205C29.1271 4.735 29.2721 5.375 29.2721 6.125V11H27.5771V6.38C27.5771 5.64 27.3921 5.075 27.0221 4.685C26.6521 4.285 26.1471 4.085 25.5071 4.085C24.8671 4.085 24.3571 4.285 23.9771 4.685C23.6071 5.075 23.4221 5.64 23.4221 6.38V11H21.7121V2.735H23.4221V3.68C23.7021 3.34 24.0571 3.075 24.4871 2.885C24.9271 2.695 25.3921 2.6 25.8821 2.6ZM39.0883 2.735V11H37.3783V10.025C37.1083 10.365 36.7533 10.635 36.3133 10.835C35.8833 11.025 35.4233 11.12 34.9333 11.12C34.2833 11.12 33.6983 10.985 33.1783 10.715C32.6683 10.445 32.2633 10.045 31.9633 9.515C31.6733 8.985 31.5283 8.345 31.5283 7.595V2.735H33.2233V7.34C33.2233 8.08 33.4083 8.65 33.7783 9.05C34.1483 9.44 34.6533 9.635 35.2933 9.635C35.9333 9.635 36.4383 9.44 36.8083 9.05C37.1883 8.65 37.3783 8.08 37.3783 7.34V2.735H39.0883ZM49.0695 6.665C49.0695 6.975 49.0495 7.255 49.0095 7.505H42.6945C42.7445 8.165 42.9895 8.695 43.4295 9.095C43.8695 9.495 44.4095 9.695 45.0495 9.695C45.9695 9.695 46.6195 9.31 46.9995 8.54H48.8445C48.5945 9.3 48.1395 9.925 47.4795 10.415C46.8295 10.895 46.0195 11.135 45.0495 11.135C44.2595 11.135 43.5495 10.96 42.9195 10.61C42.2995 10.25 41.8095 9.75 41.4495 9.11C41.0995 8.46 40.9245 7.71 40.9245 6.86C40.9245 6.01 41.0945 5.265 41.4345 4.625C41.7845 3.975 42.2695 3.475 42.8895 3.125C43.5195 2.775 44.2395 2.6 45.0495 2.6C45.8295 2.6 46.5245 2.77 47.1345 3.11C47.7445 3.45 48.2195 3.93 48.5595 4.55C48.8995 5.16 49.0695 5.865 49.0695 6.665ZM47.2845 6.125C47.2745 5.495 47.0495 4.99 46.6095 4.61C46.1695 4.23 45.6245 4.04 44.9745 4.04C44.3845 4.04 43.8795 4.23 43.4595 4.61C43.0395 4.98 42.7895 5.485 42.7095 6.125H47.2845ZM56.6588 9.62H60.1838V11H54.9488V0.574999H56.6588V9.62ZM65.3489 11.135C64.5689 11.135 63.8639 10.96 63.2339 10.61C62.6039 10.25 62.1089 9.75 61.7489 9.11C61.3889 8.46 61.2089 7.71 61.2089 6.86C61.2089 6.02 61.3939 5.275 61.7639 4.625C62.1339 3.975 62.6389 3.475 63.2789 3.125C63.9189 2.775 64.6339 2.6 65.4239 2.6C66.2139 2.6 66.9289 2.775 67.5689 3.125C68.2089 3.475 68.7139 3.975 69.0839 4.625C69.4539 5.275 69.6389 6.02 69.6389 6.86C69.6389 7.7 69.4489 8.445 69.0689 9.095C68.6889 9.745 68.1689 10.25 67.5089 10.61C66.8589 10.96 66.1389 11.135 65.3489 11.135ZM65.3489 9.65C65.7889 9.65 66.1989 9.545 66.5789 9.335C66.9689 9.125 67.2839 8.81 67.5239 8.39C67.7639 7.97 67.8839 7.46 67.8839 6.86C67.8839 6.26 67.7689 5.755 67.5389 5.345C67.3089 4.925 67.0039 4.61 66.6239 4.4C66.2439 4.19 65.8339 4.085 65.3939 4.085C64.9539 4.085 64.5439 4.19 64.1639 4.4C63.7939 4.61 63.4989 4.925 63.2789 5.345C63.0589 5.755 62.9489 6.26 62.9489 6.86C62.9489 7.75 63.1739 8.44 63.6239 8.93C64.0839 9.41 64.6589 9.65 65.3489 9.65ZM74.8093 2.6C75.4493 2.6 76.0143 2.73 76.5043 2.99C77.0043 3.24 77.3943 3.555 77.6743 3.935V2.735H79.3993V11.135C79.3993 11.895 79.2393 12.57 78.9193 13.16C78.5993 13.76 78.1343 14.23 77.5243 14.57C76.9243 14.91 76.2043 15.08 75.3643 15.08C74.2443 15.08 73.3143 14.815 72.5743 14.285C71.8343 13.765 71.4143 13.055 71.3143 12.155H73.0093C73.1393 12.585 73.4143 12.93 73.8343 13.19C74.2643 13.46 74.7743 13.595 75.3643 13.595C76.0543 13.595 76.6093 13.385 77.0293 12.965C77.4593 12.545 77.6743 11.935 77.6743 11.135V9.755C77.3843 10.145 76.9893 10.475 76.4893 10.745C75.9993 11.005 75.4393 11.135 74.8093 11.135C74.0893 11.135 73.4293 10.955 72.8293 10.595C72.2393 10.225 71.7693 9.715 71.4193 9.065C71.0793 8.405 70.9093 7.66 70.9093 6.83C70.9093 6 71.0793 5.265 71.4193 4.625C71.7693 3.985 72.2393 3.49 72.8293 3.14C73.4293 2.78 74.0893 2.6 74.8093 2.6ZM77.6743 6.86C77.6743 6.29 77.5543 5.795 77.3143 5.375C77.0843 4.955 76.7793 4.635 76.3993 4.415C76.0193 4.195 75.6093 4.085 75.1693 4.085C74.7293 4.085 74.3193 4.195 73.9393 4.415C73.5593 4.625 73.2493 4.94 73.0093 5.36C72.7793 5.77 72.6643 6.26 72.6643 6.83C72.6643 7.4 72.7793 7.9 73.0093 8.33C73.2493 8.76 73.5593 9.09 73.9393 9.32C74.3293 9.54 74.7393 9.65 75.1693 9.65C75.6093 9.65 76.0193 9.54 76.3993 9.32C76.7793 9.1 77.0843 8.78 77.3143 8.36C77.5543 7.93 77.6743 7.43 77.6743 6.86ZM85.3803 11.135C84.6003 11.135 83.8953 10.96 83.2653 10.61C82.6353 10.25 82.1403 9.75 81.7803 9.11C81.4203 8.46 81.2403 7.71 81.2403 6.86C81.2403 6.02 81.4253 5.275 81.7953 4.625C82.1653 3.975 82.6703 3.475 83.3103 3.125C83.9503 2.775 84.6653 2.6 85.4553 2.6C86.2453 2.6 86.9603 2.775 87.6003 3.125C88.2403 3.475 88.7453 3.975 89.1153 4.625C89.4853 5.275 89.6703 6.02 89.6703 6.86C89.6703 7.7 89.4803 8.445 89.1003 9.095C88.7203 9.745 88.2003 10.25 87.5403 10.61C86.8903 10.96 86.1703 11.135 85.3803 11.135ZM85.3803 9.65C85.8203 9.65 86.2303 9.545 86.6103 9.335C87.0003 9.125 87.3153 8.81 87.5553 8.39C87.7953 7.97 87.9153 7.46 87.9153 6.86C87.9153 6.26 87.8003 5.755 87.5703 5.345C87.3403 4.925 87.0353 4.61 86.6553 4.4C86.2753 4.19 85.8653 4.085 85.4253 4.085C84.9853 4.085 84.5753 4.19 84.1953 4.4C83.8253 4.61 83.5303 4.925 83.3103 5.345C83.0903 5.755 82.9803 6.26 82.9803 6.86C82.9803 7.75 83.2053 8.44 83.6553 8.93C84.1153 9.41 84.6903 9.65 85.3803 9.65Z" fill="#323C47"/>
</svg>
