<svg width="15" height="18" viewBox="0 0 15 18" fill="none" xmlns="http://www.w3.org/2000/svg">
<path d="M14.4766 5.4375C14.6758 5.4375 14.875 5.27148 14.875 5.03906V3.71094C14.875 3.51172 14.6758 3.3125 14.4766 3.3125H13.8125V1.71875C13.8125 0.855469 13.082 0.125 12.2188 0.125H1.59375C0.697266 0.125 0 0.855469 0 1.71875V15.5312C0 16.4277 0.697266 17.125 1.59375 17.125H12.2188C13.082 17.125 13.8125 16.4277 13.8125 15.5312V13.9375H14.4766C14.6758 13.9375 14.875 13.7715 14.875 13.5391V12.2109C14.875 12.0117 14.6758 11.8125 14.4766 11.8125H13.8125V9.6875H14.4766C14.6758 9.6875 14.875 9.52148 14.875 9.28906V7.96094C14.875 7.76172 14.6758 7.5625 14.4766 7.5625H13.8125V5.4375H14.4766ZM6.90625 4.375C8.06836 4.375 9.03125 5.33789 9.03125 6.5C9.03125 7.69531 8.06836 8.625 6.90625 8.625C5.71094 8.625 4.78125 7.69531 4.78125 6.5C4.78125 5.33789 5.71094 4.375 6.90625 4.375ZM10.625 12.2441C10.625 12.6094 10.293 12.875 9.86133 12.875H3.91797C3.51953 12.875 3.1875 12.6094 3.1875 12.2441V11.6133C3.1875 10.5508 4.18359 9.6875 5.41211 9.6875H5.57812C5.97656 9.88672 6.4082 9.95312 6.90625 9.95312C7.37109 9.95312 7.80273 9.88672 8.20117 9.6875H8.36719C9.5957 9.6875 10.625 10.5508 10.625 11.6133V12.2441Z" fill="#D9E1EC"/>
</svg>
