<svg width="20" height="18" viewBox="0 0 20 18" fill="none" xmlns="http://www.w3.org/2000/svg">
<path d="M18.3281 2.25H14.875V0.921875C14.875 0.490234 14.5098 0.125 14.0781 0.125H5.04688C4.58203 0.125 4.25 0.490234 4.25 0.921875V2.25H0.796875C0.332031 2.25 0 2.61523 0 3.04688V4.90625C0 6.10156 0.730469 7.33008 2.02539 8.25977C3.08789 9.02344 4.34961 9.48828 5.67773 9.6543C6.74023 11.3809 7.96875 12.0781 7.96875 12.0781V14.4688H6.375C5.17969 14.4688 4.25 15.166 4.25 16.3281V16.7266C4.25 16.959 4.41602 17.125 4.64844 17.125H14.4766C14.6758 17.125 14.875 16.959 14.875 16.7266V16.3281C14.875 15.166 13.9121 14.4688 12.75 14.4688H11.1562V12.0781C11.1562 12.0781 12.3516 11.3809 13.4141 9.6543C14.7422 9.48828 16.0039 9.02344 17.0664 8.25977C18.3613 7.33008 19.125 6.10156 19.125 4.90625V3.04688C19.125 2.61523 18.7598 2.25 18.3281 2.25ZM3.28711 6.5332C2.45703 5.96875 2.125 5.30469 2.125 4.90625V4.375H4.25C4.2832 5.4707 4.44922 6.43359 4.68164 7.26367C4.15039 7.06445 3.68555 6.83203 3.28711 6.5332ZM17 4.90625C17 5.4707 16.4023 6.13477 15.8047 6.5332C15.4062 6.83203 14.9414 7.06445 14.4102 7.26367C14.6426 6.43359 14.8086 5.4707 14.8418 4.375H17V4.90625Z" fill="#D9E1EC"/>
</svg>
