<svg width="17" height="17" viewBox="0 0 17 17" fill="none" xmlns="http://www.w3.org/2000/svg">
<path d="M16.7344 8.625C16.7344 4.10938 13.0156 0.390625 8.5 0.390625C3.95117 0.390625 0.265625 4.10938 0.265625 8.625C0.265625 13.1738 3.95117 16.8594 8.5 16.8594C13.0156 16.8594 16.7344 13.1738 16.7344 8.625ZM8.69922 3.11328C10.5918 3.11328 12.584 4.57422 12.584 6.5C12.584 9.08984 9.82812 9.12305 9.82812 10.0527V10.0859C9.82812 10.3184 9.62891 10.4844 9.42969 10.4844H7.57031C7.33789 10.4844 7.17188 10.3184 7.17188 10.0859V9.95312C7.17188 8.5918 8.20117 8.06055 8.96484 7.62891C9.62891 7.26367 10.0605 6.99805 10.0605 6.5C10.0605 5.83594 9.19727 5.4043 8.5332 5.4043C7.63672 5.4043 7.23828 5.83594 6.64062 6.59961C6.50781 6.76562 6.24219 6.79883 6.07617 6.66602L4.91406 5.80273C4.74805 5.66992 4.71484 5.4375 4.84766 5.23828C5.74414 3.87695 6.90625 3.11328 8.69922 3.11328ZM8.5 11.3477C9.33008 11.3477 10.0273 12.0449 10.0273 12.875C10.0273 13.7383 9.33008 14.4023 8.5 14.4023C7.63672 14.4023 6.97266 13.7383 6.97266 12.875C6.97266 12.0449 7.63672 11.3477 8.5 11.3477Z" fill="#C2CFE0"/>
</svg>
