<svg width="15" height="18" viewBox="0 0 15 18" fill="none" xmlns="http://www.w3.org/2000/svg">
<path d="M14.875 12.0781V0.921875C14.875 0.490234 14.5098 0.125 14.0781 0.125H3.1875C1.42773 0.125 0 1.55273 0 3.3125V13.9375C0 15.6973 1.42773 17.125 3.1875 17.125H14.0781C14.5098 17.125 14.875 16.793 14.875 16.3281V15.7969C14.875 15.5645 14.7422 15.332 14.5762 15.1992C14.4102 14.668 14.4102 13.207 14.5762 12.709C14.7422 12.5762 14.875 12.3438 14.875 12.0781ZM4.25 4.57422C4.25 4.47461 4.31641 4.375 4.44922 4.375H11.4883C11.5879 4.375 11.6875 4.47461 11.6875 4.57422V5.23828C11.6875 5.37109 11.5879 5.4375 11.4883 5.4375H4.44922C4.31641 5.4375 4.25 5.37109 4.25 5.23828V4.57422ZM4.25 6.69922C4.25 6.59961 4.31641 6.5 4.44922 6.5H11.4883C11.5879 6.5 11.6875 6.59961 11.6875 6.69922V7.36328C11.6875 7.49609 11.5879 7.5625 11.4883 7.5625H4.44922C4.31641 7.5625 4.25 7.49609 4.25 7.36328V6.69922ZM12.6504 15H3.1875C2.58984 15 2.125 14.5352 2.125 13.9375C2.125 13.373 2.58984 12.875 3.1875 12.875H12.6504C12.584 13.4727 12.584 14.4355 12.6504 15Z" fill="#D9E1EC"/>
</svg>
