<svg width="15" height="18" viewBox="0 0 15 18" fill="none" xmlns="http://www.w3.org/2000/svg">
<path d="M0 15.5312C0 16.4277 0.697266 17.125 1.59375 17.125H13.2812C14.1445 17.125 14.875 16.4277 14.875 15.5312V6.5H0V15.5312ZM10.625 9.02344C10.625 8.82422 10.791 8.625 11.0234 8.625H12.3516C12.5508 8.625 12.75 8.82422 12.75 9.02344V10.3516C12.75 10.584 12.5508 10.75 12.3516 10.75H11.0234C10.791 10.75 10.625 10.584 10.625 10.3516V9.02344ZM10.625 13.2734C10.625 13.0742 10.791 12.875 11.0234 12.875H12.3516C12.5508 12.875 12.75 13.0742 12.75 13.2734V14.6016C12.75 14.834 12.5508 15 12.3516 15H11.0234C10.791 15 10.625 14.834 10.625 14.6016V13.2734ZM6.375 9.02344C6.375 8.82422 6.54102 8.625 6.77344 8.625H8.10156C8.30078 8.625 8.5 8.82422 8.5 9.02344V10.3516C8.5 10.584 8.30078 10.75 8.10156 10.75H6.77344C6.54102 10.75 6.375 10.584 6.375 10.3516V9.02344ZM6.375 13.2734C6.375 13.0742 6.54102 12.875 6.77344 12.875H8.10156C8.30078 12.875 8.5 13.0742 8.5 13.2734V14.6016C8.5 14.834 8.30078 15 8.10156 15H6.77344C6.54102 15 6.375 14.834 6.375 14.6016V13.2734ZM2.125 9.02344C2.125 8.82422 2.29102 8.625 2.52344 8.625H3.85156C4.05078 8.625 4.25 8.82422 4.25 9.02344V10.3516C4.25 10.584 4.05078 10.75 3.85156 10.75H2.52344C2.29102 10.75 2.125 10.584 2.125 10.3516V9.02344ZM2.125 13.2734C2.125 13.0742 2.29102 12.875 2.52344 12.875H3.85156C4.05078 12.875 4.25 13.0742 4.25 13.2734V14.6016C4.25 14.834 4.05078 15 3.85156 15H2.52344C2.29102 15 2.125 14.834 2.125 14.6016V13.2734ZM13.2812 2.25H11.6875V0.65625C11.6875 0.390625 11.4219 0.125 11.1562 0.125H10.0938C9.79492 0.125 9.5625 0.390625 9.5625 0.65625V2.25H5.3125V0.65625C5.3125 0.390625 5.04688 0.125 4.78125 0.125H3.71875C3.41992 0.125 3.1875 0.390625 3.1875 0.65625V2.25H1.59375C0.697266 2.25 0 2.98047 0 3.84375V5.4375H14.875V3.84375C14.875 2.98047 14.1445 2.25 13.2812 2.25Z" fill="#D9E1EC"/>
</svg>
