<svg width="14" height="14" viewBox="0 0 14 14" fill="none" xmlns="http://www.w3.org/2000/svg">
<g filter="url(#filter0_d_325_780)">
<path fill-rule="evenodd" clip-rule="evenodd" d="M2 0C0.895431 0 0 0.89543 0 2V12C0 13.1046 0.89543 14 2 14H12C13.1046 14 14 13.1046 14 12V2C14 0.895431 13.1046 0 12 0H2ZM5 2C4.44772 2 4 2.44772 4 3V11C4 11.5523 4.44772 12 5 12C5.55228 12 6 11.5523 6 11V3C6 2.44772 5.55228 2 5 2Z" fill="#C2CFE0"/>
</g>
<defs>
<filter id="filter0_d_325_780" x="-4" y="0" width="22" height="22" filterUnits="userSpaceOnUse" color-interpolation-filters="sRGB">
<feFlood flood-opacity="0" result="BackgroundImageFix"/>
<feColorMatrix in="SourceAlpha" type="matrix" values="0 0 0 0 0 0 0 0 0 0 0 0 0 0 0 0 0 0 127 0" result="hardAlpha"/>
<feOffset dy="4"/>
<feGaussianBlur stdDeviation="2"/>
<feComposite in2="hardAlpha" operator="out"/>
<feColorMatrix type="matrix" values="0 0 0 0 0 0 0 0 0 0 0 0 0 0 0 0 0 0 0.25 0"/>
<feBlend mode="normal" in2="BackgroundImageFix" result="effect1_dropShadow_325_780"/>
<feBlend mode="normal" in="SourceGraphic" in2="effect1_dropShadow_325_780" result="shape"/>
</filter>
</defs>
</svg>
