<svg width="71" height="70" viewBox="0 0 71 70" fill="none" xmlns="http://www.w3.org/2000/svg">
<circle cx="35.6199" cy="35" r="35" fill="url(#paint0_linear_43_8939)"/>
<path d="M28.5758 51.5098C25.105 51.5098 22.2613 48.9869 22.2613 45.8807V42.9057C22.2613 42.3077 22.7571 41.8119 23.3551 41.8119C23.953 41.8119 24.4488 42.3077 24.4488 42.9057C24.4488 44.7286 26.2133 46.0994 28.5758 46.0994C30.9383 46.0994 32.7029 44.7286 32.7029 42.9057C32.7029 42.3077 33.1987 41.8119 33.7967 41.8119C34.3946 41.8119 34.8904 42.3077 34.8904 42.9057V45.8807C34.8904 48.9869 32.0612 51.5098 28.5758 51.5098ZM24.8279 47.3098C25.4696 48.5057 26.9133 49.3223 28.5758 49.3223C30.2383 49.3223 31.6821 48.4911 32.3238 47.3098C31.2883 47.9369 30.005 48.3015 28.5758 48.3015C27.1467 48.3015 25.8633 47.9369 24.8279 47.3098Z" fill="#0F5FC2"/>
<path d="M28.5758 44.2908C26.1842 44.2908 24.0405 43.197 22.9759 41.4616C22.5092 40.7033 22.2613 39.8137 22.2613 38.9095C22.2613 37.3783 22.9321 35.9491 24.1571 34.8845C26.5196 32.8138 30.5883 32.8138 32.9654 34.8701C34.1904 35.9493 34.8758 37.3783 34.8758 38.9095C34.8758 39.8137 34.6279 40.7033 34.1612 41.4616C33.1112 43.197 30.9675 44.2908 28.5758 44.2908ZM28.5758 35.468C27.4383 35.468 26.3884 35.847 25.6009 36.5325C24.8571 37.1741 24.4488 38.02 24.4488 38.9095C24.4488 39.42 24.58 39.8868 24.8425 40.3243C25.5133 41.4326 26.9425 42.118 28.5758 42.118C30.2092 42.118 31.6383 41.4326 32.2946 40.3389C32.5571 39.9159 32.6883 39.4347 32.6883 38.9243C32.6883 38.0347 32.28 37.1887 31.5363 36.5325C30.7634 35.847 29.7133 35.468 28.5758 35.468Z" fill="#0F5FC2"/>
<path d="M28.5758 48.3021C24.9737 48.3021 22.2613 45.9833 22.2613 42.9208V38.9104C22.2613 35.8042 25.0904 33.2812 28.5758 33.2812C30.2237 33.2812 31.7988 33.85 32.98 34.8708C34.205 35.95 34.8904 37.3792 34.8904 38.9104V42.9208C34.8904 45.9833 32.1779 48.3021 28.5758 48.3021ZM28.5758 35.4688C26.3008 35.4688 24.4488 37.0146 24.4488 38.9104V42.9208C24.4488 44.7438 26.2133 46.1146 28.5758 46.1146C30.9383 46.1146 32.7029 44.7438 32.7029 42.9208V38.9104C32.7029 38.0208 32.2946 37.175 31.5509 36.5188C30.7634 35.8479 29.7133 35.4688 28.5758 35.4688Z" fill="#0F5FC2"/>
<path d="M45.8864 39.917C43.6843 39.917 41.8176 38.2836 41.6426 36.1836C41.526 34.9732 41.9635 33.792 42.8385 32.9315C43.5676 32.1732 44.6031 31.7503 45.6968 31.7503H48.7447C50.1885 31.794 51.2968 32.9315 51.2968 34.3315V37.3357C51.2968 38.7357 50.1885 39.8732 48.7885 39.917H45.8864ZM48.701 33.9378H45.7114C45.201 33.9378 44.7343 34.1274 44.3989 34.4774C43.976 34.8857 43.7718 35.4399 43.8301 35.994C43.9031 36.9565 44.8364 37.7295 45.8864 37.7295H48.7447C48.9343 37.7295 49.1093 37.5545 49.1093 37.3357V34.3315C49.1093 34.1128 48.9343 33.9524 48.701 33.9378Z" fill="#0F5FC2"/>
<path d="M41.4535 49.3229H37.8077C37.2098 49.3229 36.7139 48.8271 36.7139 48.2292C36.7139 47.6313 37.2098 47.1354 37.8077 47.1354H41.4535C45.216 47.1354 47.6514 44.7 47.6514 40.9375V39.9167H45.8868C43.6847 39.9167 41.8181 38.2833 41.6431 36.1833C41.5264 34.9729 41.9641 33.7917 42.8391 32.9313C43.5682 32.1729 44.6035 31.75 45.6972 31.75H47.6368V30.7292C47.6368 27.3167 45.6391 24.9687 42.4016 24.5896C42.0516 24.5312 41.7452 24.5312 41.4389 24.5312H28.314C27.964 24.5312 27.6285 24.5604 27.2931 24.6042C24.0848 25.0125 22.116 27.3458 22.116 30.7292V33.6458C22.116 34.2438 21.6202 34.7396 21.0223 34.7396C20.4244 34.7396 19.9285 34.2438 19.9285 33.6458V30.7292C19.9285 26.2375 22.6994 22.9854 27.0015 22.4458C27.3953 22.3875 27.8473 22.3438 28.314 22.3438H41.4389C41.7889 22.3438 42.241 22.3583 42.7077 22.4312C47.0098 22.9271 49.8243 26.1938 49.8243 30.7292V32.8438C49.8243 33.4417 49.3285 33.9375 48.7306 33.9375H45.6972C45.1868 33.9375 44.7203 34.1271 44.3849 34.4771C43.962 34.8854 43.7577 35.4396 43.816 35.9937C43.8889 36.9563 44.8224 37.7292 45.8724 37.7292H48.7452C49.3431 37.7292 49.8389 38.225 49.8389 38.8229V40.9375C49.8389 45.9542 46.4702 49.3229 41.4535 49.3229Z" fill="#0F5FC2"/>
<defs>
<linearGradient id="paint0_linear_43_8939" x1="62.7449" y1="1.78497e-06" x2="35.6199" y2="70" gradientUnits="userSpaceOnUse">
<stop stop-color="#CAF1FF"/>
<stop offset="1" stop-color="#CDF4FF"/>
</linearGradient>
</defs>
</svg>
