<svg width="70" height="70" viewBox="0 0 70 70" fill="none" xmlns="http://www.w3.org/2000/svg">
<circle cx="35" cy="35" r="35" fill="url(#paint0_linear_43_8923)"/>
<path d="M36.5313 42.3648H33.7896C31.85 42.3648 30.2604 40.7315 30.2604 38.719C30.2604 38.1211 30.7563 37.6253 31.3542 37.6253C31.9521 37.6253 32.4479 38.1211 32.4479 38.719C32.4479 39.5211 33.0459 40.1773 33.7896 40.1773H36.5313C37.1 40.1773 37.5521 39.6669 37.5521 39.0398C37.5521 38.2523 37.3334 38.1357 36.8375 37.9607L32.4479 36.4294C31.5146 36.1086 30.2604 35.4232 30.2604 33.2794C30.2604 31.4566 31.7042 29.9545 33.4688 29.9545H36.2104C38.15 29.9545 39.7396 31.5878 39.7396 33.6003C39.7396 34.1982 39.2438 34.694 38.6459 34.694C38.0479 34.694 37.5521 34.1982 37.5521 33.6003C37.5521 32.7982 36.9542 32.142 36.2104 32.142H33.4688C32.9 32.142 32.4479 32.6524 32.4479 33.2794C32.4479 34.0669 32.6667 34.1836 33.1625 34.3586L37.5521 35.8898C38.4854 36.2107 39.7396 36.8961 39.7396 39.0398C39.7396 40.8773 38.2959 42.3648 36.5313 42.3648Z" fill="#00AC4F"/>
<path d="M35 43.8229C34.4021 43.8229 33.9062 43.3271 33.9062 42.7291V29.6041C33.9062 29.0062 34.4021 28.5104 35 28.5104C35.5979 28.5104 36.0938 29.0062 36.0938 29.6041V42.7291C36.0938 43.3271 35.5979 43.8229 35 43.8229Z" fill="#00AC4F"/>
<path d="M35 51.8437C26.3521 51.8437 19.3229 44.8146 19.3229 36.1666C19.3229 27.5187 26.3521 20.4896 35 20.4896C35.5979 20.4896 36.0938 20.9854 36.0938 21.5833C36.0938 22.1812 35.5979 22.6771 35 22.6771C27.5625 22.6771 21.5104 28.7291 21.5104 36.1666C21.5104 43.6041 27.5625 49.6562 35 49.6562C42.4375 49.6562 48.4896 43.6041 48.4896 36.1666C48.4896 35.5687 48.9854 35.0729 49.5833 35.0729C50.1813 35.0729 50.6771 35.5687 50.6771 36.1666C50.6771 44.8146 43.6479 51.8437 35 51.8437Z" fill="#00AC4F"/>
<path d="M48.125 29.9687H42.2917C41.6937 29.9687 41.1979 29.4729 41.1979 28.875V23.0416C41.1979 22.4437 41.6937 21.9479 42.2917 21.9479C42.8896 21.9479 43.3854 22.4437 43.3854 23.0416V27.7812H48.125C48.7229 27.7812 49.2187 28.2771 49.2187 28.875C49.2187 29.4729 48.7229 29.9687 48.125 29.9687Z" fill="#00AC4F"/>
<path d="M42.2909 29.9694C42.0138 29.9694 41.7367 29.8673 41.518 29.6485C41.095 29.2256 41.095 28.5256 41.518 28.1027L48.8096 20.811C49.2325 20.3881 49.9325 20.3881 50.3555 20.811C50.7784 21.2339 50.7784 21.9339 50.3555 22.3569L43.0638 29.6485C42.845 29.8673 42.568 29.9694 42.2909 29.9694Z" fill="#00AC4F"/>
<defs>
<linearGradient id="paint0_linear_43_8923" x1="62.125" y1="1.78497e-06" x2="35" y2="70" gradientUnits="userSpaceOnUse">
<stop stop-color="#D3FFE7"/>
<stop offset="1" stop-color="#EFFFF6"/>
</linearGradient>
</defs>
</svg>
