<svg width="71" height="70" viewBox="0 0 71 70" fill="none" xmlns="http://www.w3.org/2000/svg">
<circle cx="35.2107" cy="35" r="35" fill="url(#paint0_linear_43_8955)"/>
<path d="M41.7732 30.0851C41.1753 30.0851 40.6794 29.5893 40.6794 28.9914V26.9789C40.6794 25.4476 40.0232 23.9601 38.8857 22.9247C37.7336 21.8747 36.2461 21.3935 34.6711 21.5393C32.0461 21.7872 29.7419 24.4706 29.7419 27.2706V28.6851C29.7419 29.2831 29.2461 29.7789 28.6482 29.7789C28.0503 29.7789 27.5544 29.2831 27.5544 28.6851V27.256C27.5544 23.3331 30.719 19.7164 34.4669 19.3518C36.6544 19.1476 38.7544 19.8331 40.3586 21.306C41.9482 22.7497 42.8669 24.8206 42.8669 26.9789V28.9914C42.8669 29.5893 42.3711 30.0851 41.7732 30.0851Z" fill="#DA001A"/>
<path d="M39.5854 50.6771H30.8354C24.0979 50.6771 22.8438 47.5417 22.5229 44.4938L21.4292 35.7583C21.2688 34.1833 21.2104 31.9229 22.7417 30.2313C24.0542 28.7729 26.2271 28.0729 29.3771 28.0729H41.0437C44.2083 28.0729 46.3812 28.7875 47.6791 30.2313C49.1958 31.9229 49.1521 34.1833 48.9916 35.7292L47.8979 44.4938C47.5771 47.5417 46.3229 50.6771 39.5854 50.6771ZM29.3771 30.2604C26.9125 30.2604 25.2208 30.7417 24.3604 31.7042C23.6458 32.4917 23.4125 33.7021 23.6021 35.5104L24.6958 44.2458C24.9438 46.5792 25.5854 48.5042 30.8354 48.5042H39.5854C44.8354 48.5042 45.4771 46.5938 45.725 44.275L46.8187 35.5104C47.0083 33.7313 46.775 32.5208 46.0604 31.7188C45.2 30.7417 43.5083 30.2604 41.0437 30.2604H29.3771Z" fill="#DA001A"/>
<path d="M40.1985 36.6769C39.3818 36.6769 38.7256 36.0207 38.7256 35.2186C38.7256 34.4165 39.3818 33.7603 40.1839 33.7603C40.986 33.7603 41.6422 34.4165 41.6422 35.2186C41.6422 36.0207 41.0006 36.6769 40.1985 36.6769Z" fill="#DA001A"/>
<path d="M29.9901 36.6769C29.1734 36.6769 28.5172 36.0207 28.5172 35.2186C28.5172 34.4165 29.1734 33.7603 29.9755 33.7603C30.7776 33.7603 31.4338 34.4165 31.4338 35.2186C31.4338 36.0207 30.7922 36.6769 29.9901 36.6769Z" fill="#DA001A"/>
<defs>
<linearGradient id="paint0_linear_43_8955" x1="62.3357" y1="1.78497e-06" x2="35.2107" y2="70" gradientUnits="userSpaceOnUse">
<stop stop-color="#FFA3CF"/>
<stop offset="1" stop-color="#FFD5F3"/>
</linearGradient>
</defs>
</svg>
